#!OML:ASF F:\VICON\USERDATA\INSTALL\rory3\rory3.ASF
:FULLY-SPECIFIED
:DEGREES
1834
root -0.0317116 15.5331 0.00890828 0.984951 -1.22224 1.72452
lowerback 14.3548 0.141349 -0.777661
upperback -6.2751 -0.158301 -1.33613
thorax -15.1876 -0.0879234 -1.02399
lowerneck -10.0288 3.99889 -5.99876
upperneck 20.7004 5.03042 7.87394
head 7.62376 2.70439 4.07266
rclavicle 6.90777e-015 1.09332e-014
rhumerus -32.3925 -37.3323 34.238
rradius 69.1526
rwrist -35.5881
rhand 6.08758 14.7386
rfingers 7.12502
rthumb 31.4068 -12.5845
lclavicle 6.90777e-015 1.09332e-014
lhumerus -25.5416 47.3942 -25.9484
lradius 65.9521
lwrist 51.7661
lhand 4.71682 15.5331
lfingers 7.12502
lthumb 30.0998 43.1023
rfemur -14.7338 3.88293 15.2799
rtibia 40.1162
rfoot -21.3354 -6.72009
rtoes -15.0208
lfemur -11.0263 -0.219532 -16.5651
ltibia 32.7735
lfoot -16.6799 -2.00134
ltoes -11.459
1835
root -0.0281407 15.5326 -3.45544e-006 1.07351 -1.28175 1.72168
lowerback 14.4606 0.141313 -0.742721
upperback -6.21784 -0.144393 -1.28255
thorax -15.1847 -0.0812511 -0.987094
lowerneck -9.99465 3.95842 -6.05745
upperneck 20.9269 4.97073 7.90059
head 7.69396 2.67149 4.09438
rclavicle -1.01877e-015 -2.10712e-014
rhumerus -32.4868 -37.6068 34.3364
rradius 69.1131
rwrist -35.3501
rhand 6.12538 14.8568
rfingers 7.12502
rthumb 31.4428 -12.4593
lclavicle -1.01877e-015 -2.10712e-014
lhumerus -25.7724 47.3468 -26.108
lradius 65.9199
lwrist 51.7253
lhand 4.58874 15.5901
lfingers 7.12502
lthumb 29.9776 43.1814
rfemur -14.9168 3.88184 15.2531
rtibia 40.1675
rfoot -21.3258 -6.68072
rtoes -14.9516
lfemur -11.1667 -0.200449 -16.5796
ltibia 32.7931
lfoot -16.6782 -1.89113
ltoes -11.7542
1836
root -0.0255954 15.5348 -0.00898917 1.15015 -1.33347 1.68711
lowerback 14.5318 0.140738 -0.672293
upperback -6.11796 -0.121539 -1.22235
thorax -15.1086 -0.0732867 -0.964388
lowerneck -10.0382 3.87367 -6.11141
upperneck 21.1389 4.85669 7.90782
head 7.77891 2.61194 4.10669
rclavicle -3.64024e-015 3.77691e-015
rhumerus -32.5568 -37.926 34.4468
rradius 68.9848
rwrist -35.1291
rhand 6.02202 14.9151
rfingers 7.12502
rthumb 31.3443 -12.4201
lclavicle -3.64024e-015 3.77691e-015
lhumerus -25.9727 47.3677 -26.2554
lradius 65.8039
lwrist 51.6729
lhand 4.35927 15.5385
lfingers 7.12502
lthumb 29.7586 43.1692
rfemur -15.0603 3.90016 15.2736
rtibia 40.1929
rfoot -21.2711 -6.70285
rtoes -14.6204
lfemur -11.2891 -0.1743 -16.5552
ltibia 32.8033
lfoot -16.617 -1.92683
ltoes -11.6252
1837
root -0.0235008 15.538 -0.0199254 1.25306 -1.38958 1.65756
lowerback 14.6126 0.151835 -0.565085
upperback -6.03563 -0.0826911 -1.21328
thorax -15.0599 -0.0651045 -1.02497
lowerneck -10.0526 3.80136 -6.03771
upperneck 21.3038 4.74776 7.8583
head 7.84842 2.55932 4.07627
rclavicle 2.26118e-015 2.18663e-015
rhumerus -32.752 -38.2326 34.6076
rradius 68.829
rwrist -34.8334
rhand 6.11464 14.9089
rfingers 7.12502
rthumb 31.4326 -12.4092
lclavicle 2.26118e-015 2.18663e-015
lhumerus -26.0676 47.4247 -26.349
lradius 65.7023
lwrist 51.6322
lhand 4.19606 15.4252
lfingers 7.12502
lthumb 29.6029 43.0836
rfemur -15.237 3.93855 15.2804
rtibia 40.2033
rfoot -21.2286 -6.63744
rtoes -14.1919
lfemur -11.4306 -0.146253 -16.5308
ltibia 32.7824
lfoot -16.5362 -1.95282
ltoes -11.45
1838
root -0.0211809 15.5423 -0.0313549 1.38316 -1.43384 1.73934
lowerback 14.6942 0.15133 -0.580264
upperback -5.97302 -0.0894497 -1.23205
thorax -15.0361 -0.0678505 -1.03551
lowerneck -9.99712 3.77329 -5.95481
upperneck 21.4151 4.69928 7.79613
head 7.88335 2.53469 4.04036
rclavicle -2.45996e-015 1.09332e-014
rhumerus -32.8996 -38.521 34.7153
rradius 68.6748
rwrist -34.7216
rhand 6.24779 14.8473
rfingers 7.12502
rthumb 31.5594 -12.446
lclavicle -2.45996e-015 1.09332e-014
lhumerus -26.1817 47.6581 -26.5091
lradius 65.573
lwrist 51.5495
lhand 4.05036 15.2934
lfingers 7.12502
lthumb 29.4638 42.9764
rfemur -15.453 3.96602 15.1643
rtibia 40.2104
rfoot -21.1716 -6.62839
rtoes -14.3847
lfemur -11.5877 -0.169563 -16.6356
ltibia 32.7263
lfoot -16.4868 -1.88133
ltoes -11.3065
1839
root -0.0183061 15.5446 -0.0449631 1.48107 -1.46209 1.88593
lowerback 14.8837 0.151778 -0.686235
upperback -5.93551 -0.115275 -1.24411
thorax -15.1102 -0.070387 -0.983123
lowerneck -9.91439 3.74619 -5.90185
upperneck 21.5613 4.6538 7.7425
head 7.92352 2.50948 4.01297
rclavicle 4.09993e-016 -2.98177e-015
rhumerus -32.9607 -38.7224 34.763
rradius 68.5944
rwrist -34.8666
rhand 6.06501 14.7057
rfingers 7.12502
rthumb 31.3853 -12.6217
lclavicle 4.09993e-016 -2.98177e-015
lhumerus -26.2968 47.8957 -26.6331
lradius 65.4585
lwrist 51.5845
lhand 3.95638 15.2456
lfingers 7.12502
lthumb 29.3741 42.9444
rfemur -15.6422 3.99833 14.9811
rtibia 40.2174
rfoot -21.1013 -6.63767
rtoes -14.4604
lfemur -11.7077 -0.230722 -16.8123
ltibia 32.6373
lfoot -16.4529 -1.75187
ltoes -11.6634
1840
root -0.0163879 15.5493 -0.0581177 1.57618 -1.5075 1.88202
lowerback 15.082 0.181847 -0.634155
upperback -5.89045 -0.0629887 -1.22448
thorax -15.1795 -0.0503403 -1.00609
lowerneck -10.0018 3.68283 -5.9131
upperneck 21.8613 4.55503 7.78079
head 8.04531 2.46386 4.03437
rclavicle 5.01931e-015 6.55989e-015
rhumerus -33.1246 -38.8976 34.943
rradius 68.4907
rwrist -35.0483
rhand 5.82979 14.5438
rfingers 7.12502
rthumb 31.1611 -12.8268
lclavicle 5.01931e-015 6.55989e-015
lhumerus -26.3068 48.1429 -26.6345
lradius 65.3136
lwrist 51.8065
lhand 3.93134 15.0507
lfingers 7.12502
lthumb 29.3502 42.7537
rfemur -15.8059 4.06241 14.9744
rtibia 40.2028
rfoot -21.019 -6.65066
rtoes -14.2604
lfemur -11.8139 -0.173024 -16.8148
ltibia 32.5289
lfoot -16.4069 -1.67952
ltoes -12.276
1841
root -0.0156604 15.5572 -0.0698439 1.69135 -1.54587 1.9261
lowerback 15.1887 0.216325 -0.613035
upperback -5.7969 -0.0133757 -1.23483
thorax -15.1332 -0.0301123 -1.04321
lowerneck -10.1064 3.60908 -5.88903
upperneck 22.0596 4.44788 7.77482
head 8.13995 2.41363 4.03077
rclavicle -2.57178e-015 1.00386e-014
rhumerus -33.3728 -39.1652 35.1888
rradius 68.3232
rwrist -35.1223
rhand 5.75175 14.5766
rfingers 7.12502
rthumb 31.0867 -12.8083
lclavicle -2.57178e-015 1.00386e-014
lhumerus -26.338 48.4837 -26.6837
lradius 65.1787
lwrist 52.1206
lhand 3.93916 15.1197
lfingers 7.12502
lthumb 29.3576 42.8214
rfemur -15.9685 4.14337 14.9185
rtibia 40.1599
rfoot -20.8721 -6.65769
rtoes -13.7822
lfemur -11.9232 -0.158307 -16.8672
ltibia 32.4167
lfoot -16.3092 -1.65449
ltoes -12.3839
1842
root -0.013751 15.5635 -0.0816625 1.80448 -1.54437 1.93365
lowerback 15.2813 0.19628 -0.561947
upperback -5.68337 -0.0248584 -1.20392
thorax -15.0548 -0.0378462 -1.03324
lowerneck -10.1282 3.56345 -5.87838
upperneck 22.0888 4.39497 7.71185
head 8.16021 2.38251 4.00519
rclavicle 4.09993e-015 1.2921e-015
rhumerus -33.4337 -39.5458 35.3006
rradius 68.1514
rwrist -35.2043
rhand 5.8263 14.696
rfingers 7.12502
rthumb 31.1578 -12.6753
lclavicle 4.09993e-015 1.2921e-015
lhumerus -26.5802 48.7404 -26.8996
lradius 65.0709
lwrist 52.4933
lhand 4.19815 15.4528
lfingers 7.12502
lthumb 29.6049 43.1109
rfemur -16.1027 4.18275 14.8974
rtibia 40.0836
rfoot -20.7621 -6.70184
rtoes -13.7594
lfemur -12.0327 -0.219688 -16.8795
ltibia 32.309
lfoot -16.1679 -1.62422
ltoes -12.0199
1843
root -0.0116992 15.5691 -0.0926948 1.91535 -1.55403 1.92915
lowerback 15.4017 0.162985 -0.511826
upperback -5.58992 -0.0544841 -1.16853
thorax -15.018 -0.0536654 -1.01316
lowerneck -10.1715 3.53084 -5.91294
upperneck 22.1485 4.35541 7.71185
head 8.19031 2.36041 4.01134
rclavicle 4.72735e-015 -1.41137e-014
rhumerus -33.382 -39.9776 35.2903
rradius 67.9901
rwrist -35.1764
rhand 5.94886 14.8397
rfingers 7.12502
rthumb 31.2746 -12.5091
lclavicle 4.72735e-015 -1.41137e-014
lhumerus -26.7891 48.9289 -27.1536
lradius 64.9202
lwrist 52.9015
lhand 4.72138 15.7693
lfingers 7.12502
lthumb 30.1042 43.3377
rfemur -16.2163 4.22331 14.8887
rtibia 39.975
rfoot -20.6552 -6.72503
rtoes -14.1669
lfemur -12.1519 -0.222323 -16.8828
ltibia 32.2035
lfoot -16.0644 -1.56122
ltoes -12.12
